<svg preserveAspectRatio="none"
     viewBox="0 0 106 162"
     width="40"
     height="48"
     xmlns="http://www.w3.org/2000/svg">
    <g fill="#F5AF5F" fill-rule="evenodd">
        <path
            d="M 100.442 81 C 100.442 86.054 98.53 91.111 94.707 94.944 L 39.096 150.716 C 31.45 158.384 18.938 158.384 11.292 150.716 C 7.469 146.883 5.557 141.829 5.557 136.772 C 5.557 131.718 7.469 126.664 11.292 122.831 L 53 81 L 11.293 39.171 C 7.47 35.336 5.558 30.282 5.558 25.227 S 7.47 15.116 11.293 11.283 C 18.939 3.615 31.451 3.615 39.097 11.283 L 94.707 67.055 H 94.708 C 98.531 70.889 100.442 75.946 100.442 81 M 105.5 81 C 105.5 74.381 102.942 68.169 98.298 63.513 L 42.687 7.741 C 38.031 3.073 31.819 0.5 25.194 0.5 C 18.569 0.5 12.356 3.073 7.701 7.741 C 3.057 12.397 0.499 18.609 0.499 25.228 S 3.057 38.059 7.701 42.715 L 45.876 81 L 7.701 119.288 C 3.057 123.944 0.499 130.156 0.499 136.772 C 0.499 143.391 3.057 149.603 7.701 154.259 C 12.356 158.927 18.569 161.5 25.194 161.5 S 38.032 158.927 42.687 154.259 L 98.298 98.487 C 102.942 93.831 105.5 87.619 105.5 81 Z">
        </path>
    </g>
</svg>
